<?xml version="1.0" encoding="utf-8"?>
<!-- Generator: Adobe Illustrator 15.0.0, SVG Export Plug-In  -->
<!DOCTYPE svg PUBLIC "-//W3C//DTD SVG 1.1//EN" "http://www.w3.org/Graphics/SVG/1.1/DTD/svg11.dtd" [
	<!ENTITY ns_flows "http://ns.adobe.com/Flows/1.0/">
]>
<svg version="1.1"
	 xmlns="http://www.w3.org/2000/svg" xmlns:xlink="http://www.w3.org/1999/xlink" xmlns:a="http://ns.adobe.com/AdobeSVGViewerExtensions/3.0/"
	 x="0px" y="0px" width="79px" height="79px" viewBox="-1.475 -1.935 79 79"
	 overflow="visible" enable-background="new -1.475 -1.935 79 79" xml:space="preserve">
<defs>
</defs>
<circle fill="#EDEDED" cx="37.679" cy="37.679" r="37.679"/>
<g>
	<g>
		<path fill="#FFFFFF" d="M51.978,11.385H23.38c-1.636,0-2.962,1.327-2.962,2.962c0,0.673,0.227,1.291,0.604,1.788l6.102,17.566
			c0.362,1.595,1.949,2.595,3.545,2.232c1.596-0.363,2.595-1.95,2.233-3.545L27.663,17.31h20.031l-5.239,15.079
			c-0.362,1.595,0.639,3.183,2.234,3.545c1.595,0.362,3.183-0.637,3.545-2.232l6.102-17.566c0.377-0.498,0.604-1.115,0.604-1.788
			C54.939,12.711,53.613,11.385,51.978,11.385z"/>
	</g>
</g>
<g>
	<g>
		<path fill="#FFFFFF" d="M54.336,59.222l-6.102-17.566c-0.362-1.595-1.95-2.595-3.545-2.231c-1.596,0.362-2.597,1.95-2.234,3.545
			l5.239,15.079H27.663l5.238-15.079c0.361-1.595-0.638-3.183-2.233-3.545c-1.596-0.363-3.183,0.637-3.545,2.231l-6.102,17.566
			c-0.377,0.498-0.604,1.115-0.604,1.787c0,1.637,1.326,2.963,2.962,2.963h28.598c1.636,0,2.962-1.326,2.962-2.963
			C54.939,60.337,54.713,59.72,54.336,59.222z"/>
	</g>
</g>
<polygon fill="#FFFFFF" points="42.733,23.011 37.836,39.443 32.623,23.011 "/>
<polygon fill="#FFFFFF" points="30.41,56.295 37.836,48.238 44.827,56.255 "/>
<polygon fill="#FFFFFF" points="38.587,41.597 37.402,41.597 37.402,40.414 37.983,40.925 38.587,40.414 "/>
<rect x="37.481" y="43.3" fill="#FFFFFF" width="1.026" height="1.027"/>
<polygon fill="#FFFFFF" points="38.379,46.551 37.609,47.464 37.609,45.781 38.379,45.781 "/>
</svg>
